<svg id="visual" viewBox="0 0 3466 2000" width="3466" height="2000" xmlns="http://www.w3.org/2000/svg" xmlns:xlink="http://www.w3.org/1999/xlink" version="1.1"><g stroke-width="1" stroke-linejoin="bevel"><path d="M1698 1160L1286.8 871L1299.8 1166Z" fill="#272d31" stroke="#272d31"></path><path d="M1698 1160L1769 754L1286.8 871Z" fill="#272d31" stroke="#272d31"></path><path d="M1769 754L1314.8 407L1286.8 871Z" fill="#1f2529" stroke="#1f2529"></path><path d="M900.5 1242L1300.8 1598L1299.8 1166Z" fill="#474d51" stroke="#474d51"></path><path d="M1299.8 1166L1668 1610L1698 1160Z" fill="#2f3539" stroke="#2f3539"></path><path d="M1300.8 1598L1668 1610L1299.8 1166Z" fill="#2f3539" stroke="#2f3539"></path><path d="M1698 1160L2111.3 860L1769 754Z" fill="#3f4549" stroke="#3f4549"></path><path d="M1715 442L1314.8 407L1769 754Z" fill="#50565a" stroke="#50565a"></path><path d="M2226.3 1149L2111.3 860L1698 1160Z" fill="#1f2529" stroke="#1f2529"></path><path d="M1769 754L2103.3 419L1715 442Z" fill="#2f3539" stroke="#2f3539"></path><path d="M856.5 843L900.5 1242L1286.8 871Z" fill="#1f2529" stroke="#1f2529"></path><path d="M1286.8 871L900.5 1242L1299.8 1166Z" fill="#50565a" stroke="#50565a"></path><path d="M906.5 387L856.5 843L1286.8 871Z" fill="#1f2529" stroke="#1f2529"></path><path d="M2210.3 1658L2226.3 1149L1698 1160Z" fill="#11171a" stroke="#11171a"></path><path d="M2589.5 787L2103.3 419L2111.3 860Z" fill="#181e22" stroke="#181e22"></path><path d="M2111.3 860L2103.3 419L1769 754Z" fill="#181e22" stroke="#181e22"></path><path d="M1730 0L1332.8 0L1314.8 407Z" fill="#474d51" stroke="#474d51"></path><path d="M1332.8 0L906.5 387L1314.8 407Z" fill="#3f4549" stroke="#3f4549"></path><path d="M1314.8 407L906.5 387L1286.8 871Z" fill="#474d51" stroke="#474d51"></path><path d="M900.5 1242L840.5 1670L1300.8 1598Z" fill="#272d31" stroke="#272d31"></path><path d="M1300.8 1598L1373.8 2000L1668 1610Z" fill="#2f3539" stroke="#2f3539"></path><path d="M462.3 1544L840.5 1670L900.5 1242Z" fill="#2f3539" stroke="#2f3539"></path><path d="M1668 1610L2210.3 1658L1698 1160Z" fill="#50565a" stroke="#50565a"></path><path d="M1767 2000L2210.3 1658L1668 1610Z" fill="#2f3539" stroke="#2f3539"></path><path d="M914.5 2000L1373.8 2000L1300.8 1598Z" fill="#272d31" stroke="#272d31"></path><path d="M1730 0L1314.8 407L1715 442Z" fill="#11171a" stroke="#11171a"></path><path d="M1373.8 2000L1767 2000L1668 1610Z" fill="#474d51" stroke="#474d51"></path><path d="M2103.3 419L1730 0L1715 442Z" fill="#181e22" stroke="#181e22"></path><path d="M397.3 759L462.3 1158L856.5 843Z" fill="#000000" stroke="#000000"></path><path d="M856.5 843L462.3 1158L900.5 1242Z" fill="#373d41" stroke="#373d41"></path><path d="M2226.3 1149L2589.5 787L2111.3 860Z" fill="#272d31" stroke="#272d31"></path><path d="M2103.3 419L2097.3 0L1730 0Z" fill="#1f2529" stroke="#1f2529"></path><path d="M2631.5 1241L2589.5 787L2226.3 1149Z" fill="#050e13" stroke="#050e13"></path><path d="M458.3 463L856.5 843L906.5 387Z" fill="#474d51" stroke="#474d51"></path><path d="M458.3 463L397.3 759L856.5 843Z" fill="#3f4549" stroke="#3f4549"></path><path d="M840.5 1670L914.5 2000L1300.8 1598Z" fill="#2f3539" stroke="#2f3539"></path><path d="M361.3 2000L914.5 2000L840.5 1670Z" fill="#1f2529" stroke="#1f2529"></path><path d="M2565.5 1629L2631.5 1241L2226.3 1149Z" fill="#3f4549" stroke="#3f4549"></path><path d="M0 1170L462.3 1544L462.3 1158Z" fill="#272d31" stroke="#272d31"></path><path d="M462.3 1158L462.3 1544L900.5 1242Z" fill="#272d31" stroke="#272d31"></path><path d="M842.5 0L458.3 463L906.5 387Z" fill="#181e22" stroke="#181e22"></path><path d="M2577.5 0L2097.3 0L2103.3 419Z" fill="#2f3539" stroke="#2f3539"></path><path d="M1332.8 0L842.5 0L906.5 387Z" fill="#11171a" stroke="#11171a"></path><path d="M1767 2000L2220.3 2000L2210.3 1658Z" fill="#2f3539" stroke="#2f3539"></path><path d="M2210.3 1658L2565.5 1629L2226.3 1149Z" fill="#11171a" stroke="#11171a"></path><path d="M2220.3 2000L2565.5 1629L2210.3 1658Z" fill="#1f2529" stroke="#1f2529"></path><path d="M3061.8 727L2640.5 381L2589.5 787Z" fill="#181e22" stroke="#181e22"></path><path d="M2589.5 787L2640.5 381L2103.3 419Z" fill="#000000" stroke="#000000"></path><path d="M842.5 0L451.3 0L458.3 463Z" fill="#000000" stroke="#000000"></path><path d="M0 331L0 867L397.3 759Z" fill="#3f4549" stroke="#3f4549"></path><path d="M2640.5 381L2577.5 0L2103.3 419Z" fill="#181e22" stroke="#181e22"></path><path d="M2966.8 1538L2975.8 1269L2631.5 1241Z" fill="#050e13" stroke="#050e13"></path><path d="M2631.5 1241L2975.8 1269L2589.5 787Z" fill="#2f3539" stroke="#2f3539"></path><path d="M2640.5 381L3043.8 0L2577.5 0Z" fill="#11171a" stroke="#11171a"></path><path d="M2966.8 1538L2631.5 1241L2565.5 1629Z" fill="#000000" stroke="#000000"></path><path d="M0 331L397.3 759L458.3 463Z" fill="#3f4549" stroke="#3f4549"></path><path d="M397.3 759L0 867L462.3 1158Z" fill="#474d51" stroke="#474d51"></path><path d="M0 867L0 1170L462.3 1158Z" fill="#000000" stroke="#000000"></path><path d="M462.3 1544L361.3 2000L840.5 1670Z" fill="#272d31" stroke="#272d31"></path><path d="M0 1651L361.3 2000L462.3 1544Z" fill="#000000" stroke="#000000"></path><path d="M2220.3 2000L2642.5 2000L2565.5 1629Z" fill="#2f3539" stroke="#2f3539"></path><path d="M2642.5 2000L2966.8 1538L2565.5 1629Z" fill="#272d31" stroke="#272d31"></path><path d="M3466 1216L3061.8 727L2975.8 1269Z" fill="#11171a" stroke="#11171a"></path><path d="M2975.8 1269L3061.8 727L2589.5 787Z" fill="#1f2529" stroke="#1f2529"></path><path d="M0 1170L0 1651L462.3 1544Z" fill="#50565a" stroke="#50565a"></path><path d="M451.3 0L0 331L458.3 463Z" fill="#050e13" stroke="#050e13"></path><path d="M3061.8 727L3050.8 434L2640.5 381Z" fill="#3f4549" stroke="#3f4549"></path><path d="M0 1651L0 2000L361.3 2000Z" fill="#000000" stroke="#000000"></path><path d="M451.3 0L0 0L0 331Z" fill="#181e22" stroke="#181e22"></path><path d="M2642.5 2000L3028.8 2000L2966.8 1538Z" fill="#000000" stroke="#000000"></path><path d="M2966.8 1538L3466 1216L2975.8 1269Z" fill="#11171a" stroke="#11171a"></path><path d="M3466 0L3043.8 0L3050.8 434Z" fill="#474d51" stroke="#474d51"></path><path d="M3050.8 434L3043.8 0L2640.5 381Z" fill="#000000" stroke="#000000"></path><path d="M3466 1657L3466 1216L2966.8 1538Z" fill="#000000" stroke="#000000"></path><path d="M3061.8 727L3466 465L3050.8 434Z" fill="#050e13" stroke="#050e13"></path><path d="M3466 1216L3466 755L3061.8 727Z" fill="#000000" stroke="#000000"></path><path d="M3466 755L3466 465L3061.8 727Z" fill="#373d41" stroke="#373d41"></path><path d="M3028.8 2000L3466 1657L2966.8 1538Z" fill="#181e22" stroke="#181e22"></path><path d="M3028.8 2000L3466 2000L3466 1657Z" fill="#3f4549" stroke="#3f4549"></path><path d="M3466 465L3466 0L3050.8 434Z" fill="#373d41" stroke="#373d41"></path></g></svg>